sassconf-logo.ufo
<glyph name="hyphen" format="1">
  <advance width="1000"/>
  <unicode hex="002D"/>
  <outline>
    <contour>
      <point x="606" y="368"/>
      <point x="602" y="376"/>
      <point x="596" y="376" type="curve" smooth="yes"/>
      <point x="591" y="376"/>
      <point x="584" y="374"/>
      <point x="579" y="368" type="curve"/>
      <point x="562.806" y="351.266"/>
      <point x="552.44" y="341.234"/>
      <point x="541.138" y="338.848" type="curve"/>
      <point x="536.186" y="349.806"/>
      <point x="526.474" y="355"/>
      <point x="512" y="355" type="curve" smooth="yes"/>
      <point x="488.13" y="355"/>
      <point x="461.094" y="334.107"/>
      <point x="451.042" y="303.404" type="curve"/>
      <point x="429.784" y="264.17"/>
      <point x="390.033" y="214"/>
      <point x="345" y="214" type="curve" smooth="yes"/>
      <point x="329" y="214"/>
      <point x="300" y="232"/>
      <point x="308" y="299" type="curve" smooth="yes"/>
      <point x="320" y="392"/>
      <point x="368" y="476"/>
      <point x="437" y="486" type="curve"/>
      <point x="455" y="490"/>
      <point x="478" y="485"/>
      <point x="488.504" y="468.775" type="curve"/>
      <point x="449.227" y="451.974"/>
      <point x="425" y="435.956"/>
      <point x="425" y="406" type="curve" smooth="yes"/>
      <point x="425" y="388"/>
      <point x="437" y="374"/>
      <point x="458" y="374" type="curve" smooth="yes"/>
      <point x="492" y="374"/>
      <point x="512" y="410"/>
      <point x="512" y="449" type="curve" smooth="yes"/>
      <point x="512" y="455.812"/>
      <point x="510.842" y="461.86"/>
      <point x="508.771" y="467.211" type="curve"/>
      <point x="550.287" y="486.968"/>
      <point x="607.175" y="505.859"/>
      <point x="662" y="533" type="curve" smooth="yes"/>
      <point x="716" y="561"/>
      <point x="766" y="590"/>
      <point x="766" y="633" type="curve" smooth="yes"/>
      <point x="766" y="663"/>
      <point x="743" y="684"/>
      <point x="708" y="684" type="curve" smooth="yes"/>
      <point x="687.835" y="684"/>
      <point x="658.679" y="676.393"/>
      <point x="633.815" y="664.388" type="curve"/>
      <point x="628.377" y="675.77"/>
      <point x="623" y="687.618"/>
      <point x="623" y="698" type="curve"/>
      <point x="629" y="707"/>
      <point x="632" y="719"/>
      <point x="623" y="719" type="curve" smooth="yes"/>
      <point x="614" y="719"/>
      <point x="603" y="711"/>
      <point x="603" y="698" type="curve" smooth="yes"/>
      <point x="603" y="692.504"/>
      <point x="604.162" y="686.963"/>
      <point x="605.995" y="681.5" type="curve"/>
      <point x="596.16" y="668.381"/>
      <point x="580.791" y="657.287"/>
      <point x="565.873" y="646.626" type="curve"/>
      <point x="559.916" y="658.422"/>
      <point x="554" y="670.574"/>
      <point x="554" y="681" type="curve"/>
      <point x="560" y="690"/>
      <point x="560" y="701"/>
      <point x="554" y="701" type="curve" smooth="yes"/>
      <point x="542" y="701"/>
      <point x="536" y="696"/>
      <point x="536" y="680" type="curve"/>
      <point x="536.135" y="676.587" type="line"/>
      <point x="523.616" y="637.524"/>
      <point x="489.575" y="588"/>
      <point x="474" y="588" type="curve" smooth="yes"/>
      <point x="468" y="588"/>
      <point x="465" y="594"/>
      <point x="468" y="605" type="curve"/>
      <point x="479" y="626"/>
      <point x="486" y="657"/>
      <point x="486" y="674" type="curve" smooth="yes"/>
      <point x="486" y="680"/>
      <point x="485" y="683"/>
      <point x="480" y="683" type="curve" smooth="yes"/>
      <point x="462" y="683"/>
      <point x="449" y="633"/>
      <point x="450" y="596" type="curve" smooth="yes"/>
      <point x="450.029" y="594.092" type="line"/>
      <point x="440.588" y="580.992"/>
      <point x="429.191" y="572"/>
      <point x="423" y="572" type="curve" smooth="yes"/>
      <point x="414" y="572"/>
      <point x="405" y="576"/>
      <point x="405" y="602" type="curve" smooth="yes"/>
      <point x="405" y="617"/>
      <point x="405" y="626"/>
      <point x="413" y="638" type="curve"/>
      <point x="441" y="653"/>
      <point x="453" y="660"/>
      <point x="455" y="668" type="curve"/>
      <point x="455" y="674"/>
      <point x="449" y="675"/>
      <point x="443" y="675" type="curve"/>
      <point x="426.85" y="672.607"/>
      <point x="407.837" y="660.912"/>
      <point x="395.165" y="642.268" type="curve"/>
      <point x="373.005" y="629.686"/>
      <point x="345.75" y="616.171"/>
      <point x="318.105" y="601.969" type="curve"/>
      <point x="277.516" y="640.23"/>
      <point x="216" y="672.042"/>
      <point x="216" y="729" type="curve" smooth="yes"/>
      <point x="216" y="798"/>
      <point x="281" y="854"/>
      <point x="368" y="866" type="curve" smooth="yes"/>
      <point x="440" y="876"/>
      <point x="480" y="846"/>
      <point x="480" y="804" type="curve" smooth="yes"/>
      <point x="480" y="768"/>
      <point x="449" y="723"/>
      <point x="387" y="719" type="curve" smooth="yes"/>
      <point x="318" y="713"/>
      <point x="306" y="744"/>
      <point x="303" y="740" type="curve"/>
      <point x="299" y="737"/>
      <point x="323" y="699"/>
      <point x="387" y="704" type="curve"/>
      <point x="464" y="707"/>
      <point x="510" y="767"/>
      <point x="510" y="812" type="curve" smooth="yes"/>
      <point x="510" y="869"/>
      <point x="453" y="899"/>
      <point x="375" y="891" type="curve" smooth="yes"/>
      <point x="284" y="881"/>
      <point x="173" y="813"/>
      <point x="173" y="720" type="curve" smooth="yes"/>
      <point x="173" y="657.652"/>
      <point x="239.068" y="620.923"/>
      <point x="282.62" y="583.296" type="curve"/>
      <point x="226.283" y="552.649"/>
      <point x="177" y="519.485"/>
      <point x="177" y="486" type="curve" smooth="yes"/>
      <point x="177" y="452"/>
      <point x="212" y="435"/>
      <point x="242" y="435" type="curve" smooth="yes"/>
      <point x="303" y="437"/>
      <point x="353" y="486"/>
      <point x="353" y="537" type="curve" smooth="yes"/>
      <point x="353" y="558.735"/>
      <point x="342.362" y="576.666"/>
      <point x="327.014" y="593.064" type="curve"/>
      <point x="386.623" y="626.091" type="line"/>
      <point x="383.082" y="617.059"/>
      <point x="381" y="606.976"/>
      <point x="381" y="596" type="curve" smooth="yes"/>
      <point x="381" y="573"/>
      <point x="393" y="554"/>
      <point x="411" y="554" type="curve" smooth="yes"/>
      <point x="431.052" y="554"/>
      <point x="444.411" y="565.953"/>
      <point x="453.721" y="578.949" type="curve"/>
      <point x="457.176" y="573.446"/>
      <point x="462.588" y="572"/>
      <point x="468" y="572" type="curve" smooth="yes"/>
      <point x="496.65" y="572"/>
      <point x="525.3" y="621.249"/>
      <point x="540.885" y="657.908" type="curve"/>
      <point x="543.883" y="650.4"/>
      <point x="547.807" y="643.102"/>
      <point x="551.32" y="636.043" type="curve"/>
      <point x="534.98" y="623.685"/>
      <point x="522" y="611.191"/>
      <point x="522" y="596" type="curve" smooth="yes"/>
      <point x="522" y="587"/>
      <point x="530" y="582"/>
      <point x="542" y="582" type="curve" smooth="yes"/>
      <point x="560" y="582"/>
      <point x="578" y="594"/>
      <point x="578" y="614" type="curve" smooth="yes"/>
      <point x="578" y="620.23"/>
      <point x="575.125" y="627.657"/>
      <point x="571.366" y="635.578" type="curve"/>
      <point x="585.202" y="645.899"/>
      <point x="600.115" y="657.628"/>
      <point x="610.097" y="671.378" type="curve"/>
      <point x="618.206" y="655.883" type="line"/>
      <point x="598.918" y="643.987"/>
      <point x="585" y="629.337"/>
      <point x="585" y="614" type="curve" smooth="yes"/>
      <point x="585" y="605"/>
      <point x="593" y="597"/>
      <point x="603" y="599" type="curve"/>
      <point x="630" y="600"/>
      <point x="645" y="617"/>
      <point x="645" y="633" type="curve" smooth="yes"/>
      <point x="645" y="639.574"/>
      <point x="641.71" y="647.643"/>
      <point x="637.675" y="656.282" type="curve"/>
      <point x="656.663" y="665.197"/>
      <point x="678.093" y="671"/>
      <point x="692" y="671" type="curve" smooth="yes"/>
      <point x="729" y="671"/>
      <point x="744" y="651"/>
      <point x="744" y="626" type="curve" smooth="yes"/>
      <point x="744" y="575"/>
      <point x="669" y="546"/>
      <point x="596" y="513" type="curve" smooth="yes"/>
      <point x="561.799" y="497.295"/>
      <point x="530.643" y="485.854"/>
      <point x="504.572" y="475.402" type="curve"/>
      <point x="490.712" y="496.648"/>
      <point x="460.212" y="503.749"/>
      <point x="437" y="503" type="curve"/>
      <point x="365" y="497"/>
      <point x="275" y="416"/>
      <point x="263" y="302" type="curve" smooth="yes"/>
      <point x="254" y="227"/>
      <point x="294" y="196"/>
      <point x="339" y="196" type="curve" smooth="yes"/>
      <point x="377.374" y="196"/>
      <point x="421.303" y="236.905"/>
      <point x="447.102" y="274.933" type="curve"/>
      <point x="448.578" y="252.978"/>
      <point x="466.002" y="242"/>
      <point x="488" y="242" type="curve" smooth="yes"/>
      <point x="518" y="242"/>
      <point x="545" y="277"/>
      <point x="545" y="317" type="curve" smooth="yes"/>
      <point x="545" y="322.114"/>
      <point x="544.574" y="326.686"/>
      <point x="543.723" y="330.732" type="curve"/>
      <point x="555.288" y="333.512"/>
      <point x="566.741" y="339.63"/>
      <point x="576" y="350" type="curve"/>
      <point x="572" y="316" type="line"/>
      <point x="564" y="298"/>
      <point x="552" y="274"/>
      <point x="552" y="265" type="curve" smooth="yes"/>
      <point x="552" y="260"/>
      <point x="558" y="259"/>
      <point x="564" y="259" type="curve" smooth="yes"/>
      <point x="569" y="259"/>
      <point x="575" y="259"/>
      <point x="578" y="266" type="curve"/>
      <point x="585" y="313" type="line"/>
      <point x="586.499" y="317.907" type="line"/>
      <point x="602.047" y="343.577"/>
      <point x="621.72" y="368"/>
      <point x="632" y="368" type="curve" smooth="yes"/>
      <point x="636" y="368"/>
      <point x="638" y="365"/>
      <point x="638" y="359" type="curve" smooth="yes"/>
      <point x="638" y="338"/>
      <point x="629" y="322"/>
      <point x="629" y="301" type="curve" smooth="yes"/>
      <point x="629" y="287"/>
      <point x="638" y="283"/>
      <point x="650" y="283" type="curve" smooth="yes"/>
      <point x="660.365" y="283"/>
      <point x="674.792" y="291.327"/>
      <point x="690.924" y="305.005" type="curve"/>
      <point x="688.936" y="289.396" type="line"/>
      <point x="626.773" y="246.78"/>
      <point x="576" y="184.218"/>
      <point x="576" y="127" type="curve" smooth="yes"/>
      <point x="576" y="104"/>
      <point x="591" y="86"/>
      <point x="609" y="86" type="curve" smooth="yes"/>
      <point x="661.964" y="86"/>
      <point x="700.901" y="157.687"/>
      <point x="719.623" y="298.311" type="curve"/>
      <point x="756.267" y="318.65"/>
      <point x="795.129" y="331"/>
      <point x="828" y="331" type="curve" smooth="yes"/>
      <point x="885" y="331"/>
      <point x="916" y="304"/>
      <point x="916" y="260" type="curve" smooth="yes"/>
      <point x="913" y="136"/>
      <point x="717" y="50"/>
      <point x="525" y="50" type="curve" smooth="yes"/>
      <point x="242" y="50"/>
      <point x="53" y="233"/>
      <point x="53" y="495" type="curve" smooth="yes"/>
      <point x="53" y="758"/>
      <point x="254" y="962"/>
      <point x="558" y="962" type="curve" smooth="yes"/>
      <point x="826" y="962"/>
      <point x="972" y="747"/>
      <point x="909" y="656" type="curve"/>
      <point x="925" y="638"/>
      <point x="960" y="642"/>
      <point x="960" y="692" type="curve" smooth="yes"/>
      <point x="960" y="813"/>
      <point x="793" y="975"/>
      <point x="558" y="975" type="curve" smooth="yes"/>
      <point x="255" y="975"/>
      <point x="38" y="771"/>
      <point x="38" y="495" type="curve" smooth="yes"/>
      <point x="38" y="221"/>
      <point x="237" y="37"/>
      <point x="525" y="37" type="curve" smooth="yes"/>
      <point x="763" y="37"/>
      <point x="931" y="149"/>
      <point x="931" y="260" type="curve" smooth="yes"/>
      <point x="931" y="308"/>
      <point x="898" y="341"/>
      <point x="828" y="341" type="curve" smooth="yes"/>
      <point x="795.491" y="341"/>
      <point x="757.487" y="328.846"/>
      <point x="720.996" y="309.04" type="curve"/>
      <point x="724.184" y="337.969" type="line"/>
      <point x="772.472" y="391.998"/>
      <point x="822" y="472.367"/>
      <point x="822" y="515" type="curve" smooth="yes"/>
      <point x="822" y="545"/>
      <point x="808" y="557"/>
      <point x="790" y="557" type="curve" smooth="yes"/>
      <point x="749.239" y="557"/>
      <point x="715.248" y="481.037"/>
      <point x="692.591" y="317.369" type="curve"/>
      <point x="680.742" y="307.11"/>
      <point x="670.364" y="301"/>
      <point x="663" y="301" type="curve" smooth="yes"/>
      <point x="656" y="301"/>
      <point x="653" y="304"/>
      <point x="653" y="311" type="curve" smooth="yes"/>
      <point x="653" y="328"/>
      <point x="660" y="340"/>
      <point x="660" y="367" type="curve" smooth="yes"/>
      <point x="660" y="383"/>
      <point x="653" y="388"/>
      <point x="642" y="388" type="curve" smooth="yes"/>
      <point x="626.775" y="388"/>
      <point x="611.549" y="369.602"/>
      <point x="595.943" y="348.813" type="curve"/>
    </contour>
    <contour>
      <point x="629" y="617"/>
      <point x="618" y="611"/>
      <point x="606" y="611" type="curve" smooth="yes"/>
      <point x="603" y="611"/>
      <point x="597" y="612"/>
      <point x="597" y="617" type="curve" smooth="yes"/>
      <point x="597" y="627.97"/>
      <point x="607.73" y="638.94"/>
      <point x="622.483" y="648.099" type="curve"/>
      <point x="626.222" y="641.087"/>
      <point x="629" y="634.903"/>
      <point x="629" y="630" type="curve" smooth="yes"/>
    </contour>
    <contour>
      <point x="560" y="599"/>
      <point x="552" y="594"/>
      <point x="543" y="594" type="curve" smooth="yes"/>
      <point x="539" y="594"/>
      <point x="536" y="597"/>
      <point x="536" y="600" type="curve" smooth="yes"/>
      <point x="536" y="607.432"/>
      <point x="544.7" y="615.417"/>
      <point x="556.558" y="624.518" type="curve"/>
      <point x="558.636" y="619.184"/>
      <point x="560" y="614.007"/>
      <point x="560" y="609" type="curve" smooth="yes"/>
    </contour>
    <contour>
      <point x="320" y="500"/>
      <point x="294" y="462"/>
      <point x="249" y="458" type="curve" smooth="yes"/>
      <point x="222" y="455"/>
      <point x="206" y="470"/>
      <point x="206" y="492" type="curve" smooth="yes"/>
      <point x="206" y="517.167"/>
      <point x="245.258" y="545.605"/>
      <point x="293.086" y="573.759" type="curve"/>
      <point x="309.031" y="558.29"/>
      <point x="320" y="542.302"/>
      <point x="320" y="524" type="curve" smooth="yes"/>
    </contour>
    <contour>
      <point x="801" y="537"/>
      <point x="807" y="527"/>
      <point x="807" y="510" type="curve" smooth="yes"/>
      <point x="807" y="470.978"/>
      <point x="765.566" y="400.114"/>
      <point x="725.472" y="351.824" type="curve"/>
      <point x="726" y="358" type="line"/>
      <point x="735" y="464"/>
      <point x="768" y="537"/>
      <point x="792" y="537" type="curve" smooth="yes"/>
    </contour>
    <contour>
      <point x="495" y="421"/>
      <point x="485" y="389"/>
      <point x="464" y="389" type="curve" smooth="yes"/>
      <point x="452" y="389"/>
      <point x="446" y="398"/>
      <point x="447" y="410" type="curve" smooth="yes"/>
      <point x="449.31" y="429.637"/>
      <point x="466.742" y="444.974"/>
      <point x="493.073" y="459.266" type="curve"/>
      <point x="494.317" y="455.306"/>
      <point x="495" y="450.891"/>
      <point x="495" y="446" type="curve" smooth="yes"/>
    </contour>
    <contour>
      <point x="476" y="254"/>
      <point x="470" y="263"/>
      <point x="470" y="283" type="curve" smooth="yes"/>
      <point x="470" y="310.721"/>
      <point x="484.823" y="330.141"/>
      <point x="498.033" y="337.607" type="curve"/>
      <point x="504.398" y="333.068"/>
      <point x="513.086" y="330.053"/>
      <point x="522.682" y="329.183" type="curve"/>
      <point x="523.719" y="325.14"/>
      <point x="524" y="320.5"/>
      <point x="524" y="316" type="curve" smooth="yes"/>
      <point x="524" y="280"/>
      <point x="503" y="254"/>
      <point x="488" y="254" type="curve" smooth="yes"/>
    </contour>
    <contour>
      <point x="672" y="148"/>
      <point x="633" y="104"/>
      <point x="612" y="104" type="curve" smooth="yes"/>
      <point x="600" y="104"/>
      <point x="591" y="112"/>
      <point x="591" y="130" type="curve" smooth="yes"/>
      <point x="591" y="184.575"/>
      <point x="633.592" y="239.448"/>
      <point x="687.566" y="278.039" type="curve"/>
      <point x="683" y="236" type="line"/>
    </contour>
  </outline>
</glyph>
<glyph name="three" format="1">
  <advance width="1000"/>
  <unicode hex="0033"/>
  <outline>
    <contour>
      <point x="517" y="436"/>
      <point x="387" y="361"/>
      <point x="387" y="252" type="curve" smooth="yes"/>
      <point x="387" y="195"/>
      <point x="427" y="165"/>
      <point x="478" y="165" type="curve" smooth="yes"/>
      <point x="535" y="165"/>
      <point x="587" y="205"/>
      <point x="587" y="272" type="curve" smooth="yes"/>
      <point x="587" y="394"/>
      <point x="320" y="455"/>
      <point x="320" y="594" type="curve" smooth="yes"/>
      <point x="320" y="692"/>
      <point x="421" y="773"/>
      <point x="549" y="773" type="curve" smooth="yes"/>
      <point x="636" y="773"/>
      <point x="681" y="746"/>
      <point x="681" y="706" type="curve" smooth="yes"/>
      <point x="681" y="655"/>
      <point x="636" y="625"/>
      <point x="569" y="625" type="curve" smooth="yes"/>
      <point x="529" y="625"/>
      <point x="478" y="631"/>
      <point x="444" y="655" type="curve"/>
      <point x="454" y="611"/>
      <point x="494" y="592"/>
      <point x="551" y="592" type="curve"/>
      <point x="636" y="592"/>
      <point x="723" y="649"/>
      <point x="723" y="722" type="curve" smooth="yes"/>
      <point x="723" y="773"/>
      <point x="687" y="813"/>
      <point x="571" y="813" type="curve" smooth="yes"/>
      <point x="438" y="813"/>
      <point x="251" y="716"/>
      <point x="251" y="584" type="curve" smooth="yes"/>
      <point x="251" y="440"/>
      <point x="545" y="351"/>
      <point x="545" y="256" type="curve" smooth="yes"/>
      <point x="545" y="222"/>
      <point x="514" y="195"/>
      <point x="478" y="195" type="curve" smooth="yes"/>
      <point x="448" y="195"/>
      <point x="423" y="214"/>
      <point x="423" y="252" type="curve" smooth="yes"/>
      <point x="423" y="343"/>
      <point x="527" y="410"/>
      <point x="642" y="410" type="curve" smooth="yes"/>
      <point x="782" y="410"/>
      <point x="810" y="337"/>
      <point x="810" y="282" type="curve" smooth="yes"/>
      <point x="810" y="177"/>
      <point x="711" y="76"/>
      <point x="504" y="76" type="curve" smooth="yes"/>
      <point x="259" y="76"/>
      <point x="89" y="272"/>
      <point x="89" y="487" type="curve" smooth="yes"/>
      <point x="89" y="724"/>
      <point x="273" y="921"/>
      <point x="561" y="921" type="curve" smooth="yes"/>
      <point x="796" y="921"/>
      <point x="903" y="748"/>
      <point x="826" y="596" type="curve"/>
      <point x="861" y="572"/>
      <point x="912" y="592"/>
      <point x="912" y="679" type="curve" smooth="yes"/>
      <point x="912" y="783"/>
      <point x="824" y="953"/>
      <point x="561" y="953" type="curve" smooth="yes"/>
      <point x="255" y="953"/>
      <point x="55" y="744"/>
      <point x="55" y="487" type="curve" smooth="yes"/>
      <point x="55" y="252"/>
      <point x="240" y="46"/>
      <point x="503" y="46" type="curve"/>
      <point x="724" y="46"/>
      <point x="846" y="151"/>
      <point x="846" y="291" type="curve"/>
      <point x="846" y="347"/>
      <point x="804" y="436"/>
      <point x="642" y="436" type="curve" smooth="yes"/>
    </contour>
  </outline>
</glyph>
<glyph name="C" format="1">
  <advance width="600"/>
  <unicode hex="0043"/>
  <outline>
    <contour>
      <point x="300" y="0" type="move" name="top"/>
    </contour>
    <contour>
      <point x="300" y="0" type="move" name="bottom"/>
    </contour>
  </outline>
</glyph>
<glyph name="E" format="1">
  <advance width="0"/>
  <unicode hex="0045"/>
  <outline>
    <contour>
      <point x="300" y="0" type="move" name="top"/>
    </contour>
    <contour>
      <point x="300" y="0" type="move" name="bottom"/>
    </contour>
    <contour>
      <point x="540" y="10" type="move" name="ogonek"/>
    </contour>
  </outline>
</glyph>
<glyph name="J" format="1">
  <advance width="600"/>
  <unicode hex="004A"/>
  <outline>
    <contour>
      <point x="300" y="0" type="move" name="top"/>
    </contour>
  </outline>
</glyph>
<glyph name="K" format="1">
  <advance width="600"/>
  <unicode hex="004B"/>
  <outline>
    <contour>
      <point x="300" y="0" type="move" name="top"/>
    </contour>
    <contour>
      <point x="300" y="0" type="move" name="bottom"/>
    </contour>
  </outline>
</glyph>
<glyph name="O" format="1">
  <advance width="600"/>
  <unicode hex="004F"/>
  <outline>
    <contour>
      <point x="300" y="0" type="move" name="top"/>
    </contour>
  </outline>
</glyph>
<glyph name="T" format="1">
  <advance width="600"/>
  <unicode hex="0054"/>
  <outline>
    <contour>
      <point x="300" y="0" type="move" name="top"/>
    </contour>
    <contour>
      <point x="300" y="0" type="move" name="bottom"/>
    </contour>
    <contour>
      <point x="300" y="0" type="move" name="center"/>
    </contour>
  </outline>
</glyph>
<glyph name="Y" format="1">
  <advance width="600"/>
  <unicode hex="0059"/>
  <outline>
    <contour>
      <point x="300" y="0" type="move" name="top"/>
    </contour>
  </outline>
</glyph>
<glyph name="Z" format="1">
  <advance width="0"/>
  <unicode hex="005A"/>
  <outline>
    <contour>
      <point x="300" y="0" type="move" name="top"/>
    </contour>
  </outline>
</glyph>
<glyph name="a" format="1">
  <advance width="600"/>
  <unicode hex="0061"/>
  <outline>
    <contour>
      <point x="300" y="0" type="move" name="top"/>
    </contour>
    <contour>
      <point x="540" y="10" type="move" name="ogonek"/>
    </contour>
  </outline>
</glyph>
<glyph name="e" format="1">
  <advance width="600"/>
  <unicode hex="0065"/>
  <outline>
    <contour>
      <point x="300" y="0" type="move" name="top"/>
    </contour>
    <contour>
      <point x="300" y="0" type="move" name="bottom"/>
    </contour>
    <contour>
      <point x="540" y="10" type="move" name="ogonek"/>
    </contour>
  </outline>
</glyph>
<glyph name="g" format="1">
  <advance width="600"/>
  <unicode hex="0067"/>
  <outline>
    <contour>
      <point x="300" y="0" type="move" name="top"/>
    </contour>
  </outline>
</glyph>
<glyph name="n" format="1">
  <advance width="600"/>
  <unicode hex="006E"/>
  <outline>
    <contour>
      <point x="300" y="0" type="move" name="top"/>
    </contour>
    <contour>
      <point x="300" y="0" type="move" name="bottom"/>
    </contour>
  </outline>
</glyph>
<glyph name="r" format="1">
  <advance width="0"/>
  <unicode hex="0072"/>
  <outline>
    <contour>
      <point x="300" y="0" type="move" name="top"/>
    </contour>
    <contour>
      <point x="300" y="0" type="move" name="bottom"/>
    </contour>
  </outline>
</glyph>
<glyph name="s" format="1">
  <advance width="0"/>
  <unicode hex="0073"/>
  <outline>
    <contour>
      <point x="300" y="0" type="move" name="top"/>
    </contour>
    <contour>
      <point x="300" y="0" type="move" name="bottom"/>
    </contour>
  </outline>
</glyph>
<glyph name="t" format="1">
  <advance width="0"/>
  <unicode hex="0074"/>
  <outline>
    <contour>
      <point x="300" y="0" type="move" name="center"/>
    </contour>
    <contour>
      <point x="300" y="0" type="move" name="bottom"/>
    </contour>
  </outline>
</glyph>
<glyph name="w" format="1">
  <advance width="0"/>
  <unicode hex="0077"/>
  <outline>
    <contour>
      <point x="300" y="0" type="move" name="top"/>
    </contour>
  </outline>
</glyph>
<glyph name="z" format="1">
  <advance width="600"/>
  <unicode hex="007A"/>
  <outline>
    <contour>
      <point x="300" y="0" type="move" name="top"/>
    </contour>
  </outline>
</glyph>
<glyph name="s_a_s_s_c_o_n_f" format="1">
  <advance width="600"/>
  <outline>
    <contour>
      <point x="194" y="457"/>
      <point x="203" y="452"/>
      <point x="219" y="452" type="curve"/>
      <point x="241" y="452"/>
      <point x="263" y="467"/>
      <point x="263" y="486" type="curve" smooth="yes"/>
      <point x="263" y="499"/>
      <point x="254" y="509"/>
      <point x="224" y="509" type="curve" smooth="yes"/>
      <point x="192" y="509"/>
      <point x="139" y="482"/>
      <point x="139" y="448" type="curve" smooth="yes"/>
      <point x="139" y="415"/>
      <point x="201" y="390"/>
      <point x="201" y="366" type="curve" smooth="yes"/>
      <point x="201" y="356"/>
      <point x="195" y="348"/>
      <point x="184" y="348" type="curve" smooth="yes"/>
      <point x="175" y="348"/>
      <point x="170" y="353"/>
      <point x="170" y="360" type="curve" smooth="yes"/>
      <point x="170" y="376"/>
      <point x="201" y="393"/>
      <point x="226" y="406" type="curve"/>
      <point x="227" y="411" type="line"/>
      <point x="203" y="398"/>
      <point x="161" y="379"/>
      <point x="161" y="358" type="curve"/>
      <point x="161" y="348"/>
      <point x="169" y="341"/>
      <point x="179" y="341" type="curve" smooth="yes"/>
      <point x="197" y="341"/>
      <point x="209" y="353"/>
      <point x="209" y="370" type="curve" smooth="yes"/>
      <point x="209" y="397"/>
      <point x="158" y="413"/>
      <point x="158" y="453" type="curve" smooth="yes"/>
      <point x="158" y="478"/>
      <point x="185" y="499"/>
      <point x="218" y="499" type="curve" smooth="yes"/>
      <point x="240" y="499"/>
      <point x="252" y="492"/>
      <point x="252" y="481" type="curve" smooth="yes"/>
      <point x="252" y="470"/>
      <point x="240" y="461"/>
      <point x="223" y="461" type="curve" smooth="yes"/>
      <point x="213" y="461"/>
      <point x="200" y="462"/>
      <point x="191" y="468" type="curve"/>
    </contour>
    <contour>
      <point x="231" y="421"/>
      <point x="219" y="410"/>
      <point x="219" y="394" type="curve"/>
      <point x="219" y="386"/>
      <point x="223" y="379"/>
      <point x="232" y="379" type="curve" smooth="yes"/>
      <point x="240" y="379"/>
      <point x="245" y="386"/>
      <point x="249" y="392" type="curve"/>
      <point x="248" y="396" type="line"/>
      <point x="244" y="389"/>
      <point x="238" y="384"/>
      <point x="234" y="384" type="curve"/>
      <point x="231" y="384"/>
      <point x="228" y="387"/>
      <point x="228" y="396" type="curve" smooth="yes"/>
      <point x="228" y="401"/>
      <point x="230" y="406"/>
      <point x="232" y="409" type="curve"/>
      <point x="242" y="413"/>
      <point x="246" y="416"/>
      <point x="246" y="419" type="curve" smooth="yes"/>
      <point x="246" y="420"/>
      <point x="244" y="421"/>
      <point x="241" y="421" type="curve" smooth="yes"/>
    </contour>
    <contour>
      <point x="250" y="421"/>
      <point x="245" y="406"/>
      <point x="245" y="394" type="curve" smooth="yes"/>
      <point x="245" y="387"/>
      <point x="248" y="384"/>
      <point x="253" y="384" type="curve" smooth="yes"/>
      <point x="263" y="384"/>
      <point x="272" y="402"/>
      <point x="278" y="418" type="curve"/>
      <point x="277" y="423" type="line"/>
      <point x="271" y="406"/>
      <point x="263" y="389"/>
      <point x="255" y="389" type="curve"/>
      <point x="252" y="389"/>
      <point x="251" y="392"/>
      <point x="252" y="396" type="curve"/>
      <point x="257" y="406"/>
      <point x="258" y="412"/>
      <point x="258" y="418" type="curve" smooth="yes"/>
      <point x="258" y="420"/>
      <point x="257" y="421"/>
      <point x="255" y="421" type="curve" smooth="yes"/>
    </contour>
    <contour>
      <point x="277" y="432"/>
      <point x="274" y="429"/>
      <point x="274" y="423" type="curve" smooth="yes"/>
      <point x="274" y="414"/>
      <point x="284" y="406"/>
      <point x="284" y="399" type="curve" smooth="yes"/>
      <point x="284" y="395"/>
      <point x="281" y="392"/>
      <point x="278" y="392" type="curve" smooth="yes"/>
      <point x="275" y="392"/>
      <point x="274" y="393"/>
      <point x="274" y="395" type="curve"/>
      <point x="274" y="401"/>
      <point x="287" y="405"/>
      <point x="304" y="426" type="curve"/>
      <point x="303" y="430" type="line"/>
      <point x="287" y="407"/>
      <point x="270" y="403"/>
      <point x="270" y="394" type="curve" smooth="yes"/>
      <point x="270" y="391"/>
      <point x="273" y="389"/>
      <point x="277" y="389" type="curve" smooth="yes"/>
      <point x="284" y="389"/>
      <point x="290" y="395"/>
      <point x="290" y="400" type="curve" smooth="yes"/>
      <point x="290" y="407"/>
      <point x="281" y="417"/>
      <point x="281" y="425" type="curve"/>
      <point x="283" y="428"/>
      <point x="284" y="432"/>
      <point x="281" y="432" type="curve" smooth="yes"/>
    </contour>
    <contour>
      <point x="260" y="298"/>
      <point x="242" y="281"/>
      <point x="242" y="259" type="curve" smooth="yes"/>
      <point x="242" y="246"/>
      <point x="252" y="240"/>
      <point x="263" y="240" type="curve" smooth="yes"/>
      <point x="279" y="240"/>
      <point x="294" y="258"/>
      <point x="294" y="279" type="curve" smooth="yes"/>
      <point x="294" y="292"/>
      <point x="288" y="298"/>
      <point x="276" y="298" type="curve" smooth="yes"/>
    </contour>
    <contour>
      <point x="281" y="292"/>
      <point x="282" y="284"/>
      <point x="282" y="278" type="curve" smooth="yes"/>
      <point x="282" y="256"/>
      <point x="273" y="245"/>
      <point x="264" y="245" type="curve" smooth="yes"/>
      <point x="258" y="245"/>
      <point x="254" y="251"/>
      <point x="254" y="261" type="curve" smooth="yes"/>
      <point x="254" y="280"/>
      <point x="267" y="292"/>
      <point x="274" y="292" type="curve" smooth="yes"/>
    </contour>
    <contour>
      <point x="320" y="314"/>
      <point x="316" y="312"/>
      <point x="311" y="307" type="curve" smooth="yes"/>
      <point x="298" y="294"/>
      <point x="287" y="292"/>
      <point x="270" y="293" type="curve"/>
      <point x="266" y="290" type="line"/>
      <point x="278" y="282"/>
      <point x="297" y="290"/>
      <point x="312" y="302" type="curve"/>
      <point x="312" y="283" type="line"/>
      <point x="308" y="274"/>
      <point x="302" y="262"/>
      <point x="302" y="257" type="curve" smooth="yes"/>
      <point x="302" y="255"/>
      <point x="305" y="254"/>
      <point x="308" y="254" type="curve"/>
      <point x="310" y="254"/>
      <point x="314" y="254"/>
      <point x="315" y="258" type="curve" smooth="yes"/>
      <point x="319" y="281" type="line"/>
      <point x="327" y="310" type="line" smooth="yes"/>
      <point x="328" y="313"/>
      <point x="326" y="314"/>
      <point x="324" y="314" type="curve"/>
    </contour>
    <contour>
      <point x="484" y="180"/>
      <point x="399" y="119"/>
      <point x="292" y="119" type="curve" smooth="yes"/>
      <point x="166" y="119"/>
      <point x="56" y="200"/>
      <point x="56" y="330" type="curve" smooth="yes"/>
      <point x="56" y="460"/>
      <point x="158" y="561"/>
      <point x="304" y="561" type="curve" smooth="yes"/>
      <point x="438" y="561"/>
      <point x="514" y="465"/>
      <point x="514" y="368" type="curve"/>
      <point x="514" y="298"/>
      <point x="462" y="263"/>
      <point x="462" y="235" type="curve" smooth="yes"/>
      <point x="462" y="224"/>
      <point x="468" y="219"/>
      <point x="478" y="220" type="curve"/>
      <point x="466" y="246"/>
      <point x="518" y="303"/>
      <point x="518" y="368" type="curve" smooth="yes"/>
      <point x="518" y="466"/>
      <point x="439" y="564"/>
      <point x="304" y="564" type="curve" smooth="yes"/>
      <point x="157" y="564"/>
      <point x="53" y="462"/>
      <point x="53" y="330" type="curve" smooth="yes"/>
      <point x="53" y="198"/>
      <point x="165" y="116"/>
      <point x="292" y="116" type="curve"/>
      <point x="400" y="116"/>
      <point x="487" y="178"/>
      <point x="487" y="242" type="curve"/>
      <point x="487" y="271"/>
      <point x="475" y="296"/>
      <point x="433" y="296" type="curve" smooth="yes"/>
      <point x="396" y="296"/>
      <point x="320" y="241"/>
      <point x="320" y="184" type="curve" smooth="yes"/>
      <point x="320" y="173"/>
      <point x="325" y="164"/>
      <point x="336" y="164" type="curve" smooth="yes"/>
      <point x="365" y="164"/>
      <point x="387" y="212"/>
      <point x="395" y="305" type="curve" smooth="yes"/>
      <point x="400" y="360"/>
      <point x="417" y="404"/>
      <point x="429" y="404" type="curve" smooth="yes"/>
      <point x="434" y="404"/>
      <point x="436" y="400"/>
      <point x="436" y="393" type="curve" smooth="yes"/>
      <point x="436" y="356"/>
      <point x="379" y="271"/>
      <point x="359" y="271" type="curve" smooth="yes"/>
      <point x="355" y="271"/>
      <point x="354" y="273"/>
      <point x="354" y="277" type="curve" smooth="yes"/>
      <point x="354" y="286"/>
      <point x="361" y="295"/>
      <point x="361" y="309" type="curve" smooth="yes"/>
      <point x="361" y="317"/>
      <point x="357" y="321"/>
      <point x="351" y="321" type="curve" smooth="yes"/>
      <point x="340" y="321"/>
      <point x="323" y="296"/>
      <point x="314" y="279" type="curve"/>
      <point x="314" y="268" type="line"/>
      <point x="321" y="287"/>
      <point x="338" y="311"/>
      <point x="345" y="311" type="curve"/>
      <point x="348" y="311"/>
      <point x="349" y="309"/>
      <point x="349" y="306" type="curve" smooth="yes"/>
      <point x="349" y="295"/>
      <point x="342" y="286"/>
      <point x="342" y="275" type="curve" smooth="yes"/>
      <point x="342" y="269"/>
      <point x="346" y="265"/>
      <point x="352" y="265" type="curve" smooth="yes"/>
      <point x="384" y="265"/>
      <point x="440" y="356"/>
      <point x="440" y="393" type="curve" smooth="yes"/>
      <point x="440" y="407"/>
      <point x="435" y="411"/>
      <point x="428" y="411" type="curve" smooth="yes"/>
      <point x="407" y="411"/>
      <point x="384" y="357"/>
      <point x="372" y="242" type="curve" smooth="yes"/>
      <point x="367" y="196"/>
      <point x="349" y="171"/>
      <point x="335" y="171" type="curve" smooth="yes"/>
      <point x="329" y="171"/>
      <point x="325" y="176"/>
      <point x="325" y="186" type="curve" smooth="yes"/>
      <point x="325" y="238"/>
      <point x="396" y="293"/>
      <point x="433" y="293" type="curve" smooth="yes"/>
      <point x="474" y="293"/>
      <point x="484" y="270"/>
      <point x="484" y="242" type="curve" smooth="yes"/>
    </contour>
    <contour>
      <point x="257" y="322" type="line"/>
      <point x="309" y="337"/>
      <point x="384" y="369"/>
      <point x="384" y="410" type="curve" smooth="yes"/>
      <point x="384" y="427"/>
      <point x="376" y="436"/>
      <point x="355" y="436" type="curve" smooth="yes"/>
      <point x="323" y="436"/>
      <point x="293" y="411"/>
      <point x="293" y="399" type="curve" smooth="yes"/>
      <point x="293" y="396"/>
      <point x="295" y="394"/>
      <point x="299" y="394" type="curve" smooth="yes"/>
      <point x="307" y="394"/>
      <point x="314" y="400"/>
      <point x="314" y="407" type="curve" smooth="yes"/>
      <point x="314" y="413"/>
      <point x="306" y="422"/>
      <point x="306" y="429" type="curve"/>
      <point x="308" y="432"/>
      <point x="309" y="436"/>
      <point x="306" y="436" type="curve" smooth="yes"/>
      <point x="302" y="436"/>
      <point x="299" y="433"/>
      <point x="299" y="428" type="curve" smooth="yes"/>
      <point x="299" y="419"/>
      <point x="308" y="411"/>
      <point x="308" y="406" type="curve" smooth="yes"/>
      <point x="308" y="401"/>
      <point x="304" y="397"/>
      <point x="299" y="397" type="curve" smooth="yes"/>
      <point x="297" y="397"/>
      <point x="296" y="398"/>
      <point x="296" y="400" type="curve" smooth="yes"/>
      <point x="296" y="410"/>
      <point x="322" y="430"/>
      <point x="354" y="430" type="curve" smooth="yes"/>
      <point x="374" y="430"/>
      <point x="378" y="422"/>
      <point x="378" y="411" type="curve" smooth="yes"/>
      <point x="378" y="376"/>
      <point x="312" y="343"/>
      <point x="256" y="325" type="curve"/>
    </contour>
    <contour>
      <point x="238" y="316"/>
      <point x="243" y="313"/>
      <point x="250" y="313" type="curve" smooth="yes"/>
      <point x="260" y="313"/>
      <point x="269" y="323"/>
      <point x="269" y="334" type="curve" smooth="yes"/>
      <point x="269" y="347"/>
      <point x="257" y="355"/>
      <point x="243" y="355" type="curve" smooth="yes"/>
      <point x="216" y="355"/>
      <point x="162" y="320"/>
      <point x="162" y="257" type="curve" smooth="yes"/>
      <point x="162" y="224"/>
      <point x="177" y="211"/>
      <point x="196" y="211" type="curve" smooth="yes"/>
      <point x="218" y="211"/>
      <point x="239" y="228"/>
      <point x="252" y="271" type="curve"/>
      <point x="248" y="273" type="line"/>
      <point x="234" y="236"/>
      <point x="217" y="222"/>
      <point x="202" y="222" type="curve" smooth="yes"/>
      <point x="187" y="222"/>
      <point x="183" y="237"/>
      <point x="183" y="258" type="curve" smooth="yes"/>
      <point x="183" y="312"/>
      <point x="219" y="349"/>
      <point x="242" y="349" type="curve" smooth="yes"/>
      <point x="256" y="349"/>
      <point x="261" y="342"/>
      <point x="261" y="336" type="curve" smooth="yes"/>
      <point x="261" y="328"/>
      <point x="250" y="322"/>
      <point x="236" y="322" type="curve"/>
    </contour>
    <contour>
      <point x="300" y="0" type="move" name="top"/>
    </contour>
    <contour>
      <point x="300" y="0" type="move" name="bottom"/>
    </contour>
  </outline>
</glyph>
<glyph name="sassconf.001" format="1">
  <advance width="1000"/>
  <outline>
    <contour>
      <point x="287" y="728"/>
      <point x="308" y="717"/>
      <point x="339" y="717" type="curve"/>
      <point x="385" y="717"/>
      <point x="431" y="749"/>
      <point x="431" y="789" type="curve" smooth="yes"/>
      <point x="431" y="815"/>
      <point x="410" y="836"/>
      <point x="350" y="836" type="curve" smooth="yes"/>
      <point x="276" y="836"/>
      <point x="175" y="780"/>
      <point x="175" y="710" type="curve" smooth="yes"/>
      <point x="175" y="640"/>
      <point x="297" y="589"/>
      <point x="297" y="538" type="curve" smooth="yes"/>
      <point x="297" y="519"/>
      <point x="280" y="505"/>
      <point x="262" y="505" type="curve" smooth="yes"/>
      <point x="245" y="505"/>
      <point x="236" y="514"/>
      <point x="236" y="526" type="curve" smooth="yes"/>
      <point x="236" y="559"/>
      <point x="303" y="599"/>
      <point x="355" y="626" type="curve"/>
      <point x="357" y="636" type="line"/>
      <point x="301" y="614"/>
      <point x="218" y="565"/>
      <point x="218" y="521" type="curve"/>
      <point x="218" y="498"/>
      <point x="239" y="488"/>
      <point x="256" y="488" type="curve" smooth="yes"/>
      <point x="291" y="488"/>
      <point x="318" y="512"/>
      <point x="318" y="547" type="curve" smooth="yes"/>
      <point x="318" y="603"/>
      <point x="210" y="645"/>
      <point x="210" y="720" type="curve" smooth="yes"/>
      <point x="210" y="772"/>
      <point x="268" y="815"/>
      <point x="336" y="815" type="curve" smooth="yes"/>
      <point x="383" y="815"/>
      <point x="408" y="801"/>
      <point x="408" y="778" type="curve" smooth="yes"/>
      <point x="408" y="754"/>
      <point x="385" y="736"/>
      <point x="348" y="736" type="curve" smooth="yes"/>
      <point x="327" y="736"/>
      <point x="299" y="738"/>
      <point x="280" y="752" type="curve"/>
    </contour>
    <contour>
      <point x="364" y="654"/>
      <point x="339" y="630"/>
      <point x="339" y="596" type="curve"/>
      <point x="339" y="580"/>
      <point x="348" y="565"/>
      <point x="362" y="565" type="curve" smooth="yes"/>
      <point x="383" y="565"/>
      <point x="394" y="584"/>
      <point x="401" y="596" type="curve"/>
      <point x="399" y="610" type="line"/>
      <point x="392" y="593"/>
      <point x="378" y="578"/>
      <point x="371" y="578" type="curve"/>
      <point x="364" y="578"/>
      <point x="357" y="582"/>
      <point x="357" y="601" type="curve" smooth="yes"/>
      <point x="357" y="612"/>
      <point x="357" y="617"/>
      <point x="362" y="626" type="curve"/>
      <point x="383" y="633"/>
      <point x="395" y="640"/>
      <point x="395" y="647" type="curve" smooth="yes"/>
      <point x="395" y="651"/>
      <point x="392" y="654"/>
      <point x="385" y="654" type="curve" smooth="yes"/>
    </contour>
    <contour>
      <point x="404" y="654"/>
      <point x="394" y="622"/>
      <point x="394" y="596" type="curve" smooth="yes"/>
      <point x="394" y="582"/>
      <point x="401" y="578"/>
      <point x="408" y="578" type="curve" smooth="yes"/>
      <point x="437" y="578"/>
      <point x="454" y="619"/>
      <point x="464" y="647" type="curve"/>
      <point x="458" y="657" type="line"/>
      <point x="450" y="628"/>
      <point x="429" y="591"/>
      <point x="412" y="591" type="curve"/>
      <point x="408" y="591"/>
      <point x="406" y="595"/>
      <point x="408" y="603" type="curve"/>
      <point x="416" y="619"/>
      <point x="420" y="635"/>
      <point x="420" y="647" type="curve" smooth="yes"/>
      <point x="420" y="651"/>
      <point x="418" y="654"/>
      <point x="415" y="654" type="curve" smooth="yes"/>
    </contour>
    <contour>
      <point x="600" y="651"/>
      <point x="612" y="636"/>
      <point x="612" y="617" type="curve" smooth="yes"/>
      <point x="612" y="578"/>
      <point x="562" y="563"/>
      <point x="508" y="535" type="curve" smooth="yes"/>
      <point x="454" y="505"/>
      <point x="389" y="468"/>
      <point x="389" y="430" type="curve" smooth="yes"/>
      <point x="389" y="416"/>
      <point x="395" y="407"/>
      <point x="406" y="407" type="curve" smooth="yes"/>
      <point x="422" y="407"/>
      <point x="445" y="421"/>
      <point x="445" y="470" type="curve" smooth="yes"/>
      <point x="445" y="486"/>
      <point x="431" y="516"/>
      <point x="395" y="516" type="curve" smooth="yes"/>
      <point x="331" y="516"/>
      <point x="220" y="432"/>
      <point x="220" y="305" type="curve" smooth="yes"/>
      <point x="220" y="242"/>
      <point x="254" y="211"/>
      <point x="294" y="211" type="curve"/>
      <point x="360" y="211"/>
      <point x="389" y="292"/>
      <point x="416" y="353" type="curve"/>
      <point x="394" y="337" type="line"/>
      <point x="368" y="276"/>
      <point x="341" y="234"/>
      <point x="310" y="234" type="curve" smooth="yes"/>
      <point x="287" y="234"/>
      <point x="264" y="242"/>
      <point x="264" y="313" type="curve" smooth="yes"/>
      <point x="264" y="418"/>
      <point x="336" y="503"/>
      <point x="394" y="503" type="curve" smooth="yes"/>
      <point x="415" y="503"/>
      <point x="429" y="493"/>
      <point x="429" y="468" type="curve" smooth="yes"/>
      <point x="429" y="438"/>
      <point x="418" y="418"/>
      <point x="410" y="418" type="curve" smooth="yes"/>
      <point x="406" y="418"/>
      <point x="404" y="421"/>
      <point x="404" y="430" type="curve" smooth="yes"/>
      <point x="404" y="474"/>
      <point x="485" y="514"/>
      <point x="550" y="545" type="curve" smooth="yes"/>
      <point x="592" y="563"/>
      <point x="629" y="589"/>
      <point x="629" y="622" type="curve" smooth="yes"/>
      <point x="629" y="645"/>
      <point x="611" y="661"/>
      <point x="585" y="661" type="curve" smooth="yes"/>
      <point x="553" y="661"/>
      <point x="492" y="636"/>
      <point x="492" y="607" type="curve" smooth="yes"/>
      <point x="492" y="601"/>
      <point x="495" y="596"/>
      <point x="506" y="596" type="curve" smooth="yes"/>
      <point x="523" y="596"/>
      <point x="537" y="612"/>
      <point x="537" y="624" type="curve" smooth="yes"/>
      <point x="537" y="636"/>
      <point x="520" y="654"/>
      <point x="520" y="670" type="curve"/>
      <point x="525" y="676"/>
      <point x="527" y="684"/>
      <point x="520" y="684" type="curve" smooth="yes"/>
      <point x="513" y="684"/>
      <point x="506" y="678"/>
      <point x="506" y="668" type="curve" smooth="yes"/>
      <point x="506" y="649"/>
      <point x="525" y="633"/>
      <point x="525" y="622" type="curve" smooth="yes"/>
      <point x="525" y="612"/>
      <point x="516" y="605"/>
      <point x="506" y="605" type="curve" smooth="yes"/>
      <point x="504" y="605"/>
      <point x="502" y="607"/>
      <point x="502" y="610" type="curve" smooth="yes"/>
      <point x="502" y="630"/>
      <point x="550" y="651"/>
      <point x="572" y="651" type="curve" smooth="yes"/>
    </contour>
    <contour>
      <point x="460" y="676"/>
      <point x="454" y="670"/>
      <point x="454" y="657" type="curve" smooth="yes"/>
      <point x="454" y="638"/>
      <point x="474" y="622"/>
      <point x="474" y="607" type="curve" smooth="yes"/>
      <point x="474" y="599"/>
      <point x="469" y="595"/>
      <point x="460" y="595" type="curve" smooth="yes"/>
      <point x="458" y="595"/>
      <point x="455" y="596"/>
      <point x="455" y="599" type="curve"/>
      <point x="455" y="612"/>
      <point x="487" y="624"/>
      <point x="516" y="659" type="curve"/>
      <point x="514" y="670" type="line"/>
      <point x="485" y="635"/>
      <point x="445" y="617"/>
      <point x="445" y="596" type="curve" smooth="yes"/>
      <point x="445" y="591"/>
      <point x="450" y="586"/>
      <point x="460" y="586" type="curve" smooth="yes"/>
      <point x="474" y="586"/>
      <point x="487" y="599"/>
      <point x="487" y="610" type="curve" smooth="yes"/>
      <point x="487" y="624"/>
      <point x="469" y="645"/>
      <point x="469" y="661" type="curve"/>
      <point x="473" y="668"/>
      <point x="474" y="676"/>
      <point x="469" y="676" type="curve" smooth="yes"/>
    </contour>
    <contour>
      <point x="418" y="384"/>
      <point x="381" y="349"/>
      <point x="381" y="302" type="curve" smooth="yes"/>
      <point x="381" y="276"/>
      <point x="401" y="263"/>
      <point x="425" y="263" type="curve" smooth="yes"/>
      <point x="458" y="263"/>
      <point x="490" y="300"/>
      <point x="490" y="344" type="curve" smooth="yes"/>
      <point x="490" y="372"/>
      <point x="476" y="384"/>
      <point x="452" y="384" type="curve" smooth="yes"/>
    </contour>
    <contour>
      <point x="462" y="370"/>
      <point x="464" y="355"/>
      <point x="464" y="342" type="curve" smooth="yes"/>
      <point x="464" y="307"/>
      <point x="441" y="276"/>
      <point x="425" y="276" type="curve" smooth="yes"/>
      <point x="412" y="276"/>
      <point x="406" y="286"/>
      <point x="406" y="307" type="curve" smooth="yes"/>
      <point x="406" y="346"/>
      <point x="433" y="370"/>
      <point x="448" y="370" type="curve" smooth="yes"/>
    </contour>
    <contour>
      <point x="550" y="405"/>
      <point x="543" y="403"/>
      <point x="537" y="397" type="curve" smooth="yes"/>
      <point x="504" y="363"/>
      <point x="481" y="355"/>
      <point x="445" y="378" type="curve"/>
      <point x="431" y="367" type="line"/>
      <point x="450" y="349"/>
      <point x="504" y="346"/>
      <point x="531" y="378" type="curve"/>
      <point x="520" y="340" type="line"/>
      <point x="513" y="321"/>
      <point x="495" y="295"/>
      <point x="495" y="284" type="curve" smooth="yes"/>
      <point x="495" y="280"/>
      <point x="502" y="278"/>
      <point x="508" y="278" type="curve"/>
      <point x="513" y="278"/>
      <point x="520" y="278"/>
      <point x="523" y="286" type="curve" smooth="yes"/>
      <point x="535" y="337" type="line"/>
      <point x="553" y="376" type="line"/>
      <point x="567" y="400"/>
      <point x="562" y="405"/>
      <point x="556" y="405" type="curve"/>
    </contour>
    <contour>
      <point x="886" y="167"/>
      <point x="723" y="61"/>
      <point x="514" y="61" type="curve" smooth="yes"/>
      <point x="256" y="61"/>
      <point x="51" y="241"/>
      <point x="51" y="482" type="curve" smooth="yes"/>
      <point x="51" y="731"/>
      <point x="220" y="937"/>
      <point x="520" y="937" type="curve" smooth="yes"/>
      <point x="796" y="937"/>
      <point x="946" y="741"/>
      <point x="946" y="542" type="curve"/>
      <point x="946" y="339"/>
      <point x="800" y="292"/>
      <point x="800" y="234" type="curve" smooth="yes"/>
      <point x="800" y="211"/>
      <point x="812" y="201"/>
      <point x="833" y="202" type="curve"/>
      <point x="809" y="257"/>
      <point x="963" y="349"/>
      <point x="963" y="542" type="curve" smooth="yes"/>
      <point x="963" y="747"/>
      <point x="802" y="951"/>
      <point x="520" y="951" type="curve" smooth="yes"/>
      <point x="214" y="951"/>
      <point x="37" y="738"/>
      <point x="37" y="482" type="curve" smooth="yes"/>
      <point x="37" y="232"/>
      <point x="250" y="48"/>
      <point x="514" y="48" type="curve" smooth="yes"/>
      <point x="727" y="48"/>
      <point x="902" y="159"/>
      <point x="902" y="272" type="curve"/>
      <point x="902" y="330"/>
      <point x="877" y="357"/>
      <point x="800" y="357" type="curve" smooth="yes"/>
      <point x="691" y="357"/>
      <point x="531" y="234"/>
      <point x="531" y="127" type="curve" smooth="yes"/>
      <point x="531" y="102"/>
      <point x="546" y="83"/>
      <point x="567" y="83" type="curve" smooth="yes"/>
      <point x="632" y="83"/>
      <point x="677" y="183"/>
      <point x="693" y="378" type="curve" smooth="yes"/>
      <point x="704" y="493"/>
      <point x="739" y="574"/>
      <point x="765" y="574" type="curve" smooth="yes"/>
      <point x="775" y="574"/>
      <point x="781" y="563"/>
      <point x="781" y="545" type="curve" smooth="yes"/>
      <point x="781" y="476"/>
      <point x="674" y="316"/>
      <point x="625" y="316" type="curve" smooth="yes"/>
      <point x="616" y="316"/>
      <point x="612" y="320"/>
      <point x="612" y="328" type="curve" smooth="yes"/>
      <point x="612" y="346"/>
      <point x="623" y="357"/>
      <point x="623" y="386" type="curve" smooth="yes"/>
      <point x="623" y="403"/>
      <point x="614" y="411"/>
      <point x="602" y="411" type="curve" smooth="yes"/>
      <point x="579" y="411"/>
      <point x="550" y="365"/>
      <point x="525" y="334" type="curve"/>
      <point x="523" y="299" type="line"/>
      <point x="537" y="332"/>
      <point x="574" y="390"/>
      <point x="590" y="390" type="curve"/>
      <point x="595" y="390"/>
      <point x="597" y="386"/>
      <point x="597" y="379" type="curve" smooth="yes"/>
      <point x="597" y="357"/>
      <point x="581" y="339"/>
      <point x="581" y="316" type="curve" smooth="yes"/>
      <point x="581" y="302"/>
      <point x="590" y="295"/>
      <point x="604" y="295" type="curve" smooth="yes"/>
      <point x="679" y="295"/>
      <point x="798" y="476"/>
      <point x="798" y="549" type="curve" smooth="yes"/>
      <point x="798" y="582"/>
      <point x="783" y="595"/>
      <point x="763" y="595" type="curve" smooth="yes"/>
      <point x="718" y="595"/>
      <point x="671" y="486"/>
      <point x="646" y="246" type="curve" smooth="yes"/>
      <point x="635" y="150"/>
      <point x="593" y="102"/>
      <point x="569" y="102" type="curve" smooth="yes"/>
      <point x="556" y="102"/>
      <point x="546" y="111"/>
      <point x="546" y="130" type="curve" smooth="yes"/>
      <point x="546" y="239"/>
      <point x="698" y="342"/>
      <point x="800" y="342" type="curve" smooth="yes"/>
      <point x="863" y="342"/>
      <point x="886" y="320"/>
      <point x="886" y="272" type="curve" smooth="yes"/>
    </contour>
  </outline>
</glyph>
<glyph name="sassconf.002" format="1">
  <advance width="1000"/>
  <outline>
    <contour>
      <point x="518" y="436"/>
      <point x="388" y="361"/>
      <point x="388" y="252" type="curve" smooth="yes"/>
      <point x="388" y="195"/>
      <point x="428" y="165"/>
      <point x="479" y="165" type="curve" smooth="yes"/>
      <point x="536" y="165"/>
      <point x="588" y="205"/>
      <point x="588" y="272" type="curve" smooth="yes"/>
      <point x="588" y="394"/>
      <point x="321" y="455"/>
      <point x="321" y="594" type="curve" smooth="yes"/>
      <point x="321" y="692"/>
      <point x="422" y="773"/>
      <point x="550" y="773" type="curve" smooth="yes"/>
      <point x="637" y="773"/>
      <point x="682" y="746"/>
      <point x="682" y="706" type="curve" smooth="yes"/>
      <point x="682" y="655"/>
      <point x="637" y="625"/>
      <point x="570" y="625" type="curve" smooth="yes"/>
      <point x="530" y="625"/>
      <point x="479" y="631"/>
      <point x="445" y="655" type="curve"/>
      <point x="455" y="611"/>
      <point x="495" y="592"/>
      <point x="552" y="592" type="curve"/>
      <point x="637" y="592"/>
      <point x="724" y="649"/>
      <point x="724" y="722" type="curve" smooth="yes"/>
      <point x="724" y="773"/>
      <point x="688" y="813"/>
      <point x="572" y="813" type="curve" smooth="yes"/>
      <point x="439" y="813"/>
      <point x="252" y="716"/>
      <point x="252" y="584" type="curve" smooth="yes"/>
      <point x="252" y="440"/>
      <point x="546" y="351"/>
      <point x="546" y="256" type="curve" smooth="yes"/>
      <point x="546" y="222"/>
      <point x="515" y="195"/>
      <point x="479" y="195" type="curve" smooth="yes"/>
      <point x="449" y="195"/>
      <point x="424" y="214"/>
      <point x="424" y="252" type="curve" smooth="yes"/>
      <point x="424" y="343"/>
      <point x="528" y="410"/>
      <point x="643" y="410" type="curve" smooth="yes"/>
      <point x="783" y="410"/>
      <point x="811" y="337"/>
      <point x="811" y="282" type="curve" smooth="yes"/>
      <point x="811" y="177"/>
      <point x="712" y="76"/>
      <point x="505" y="76" type="curve" smooth="yes"/>
      <point x="260" y="76"/>
      <point x="90" y="272"/>
      <point x="90" y="487" type="curve" smooth="yes"/>
      <point x="90" y="724"/>
      <point x="274" y="921"/>
      <point x="562" y="921" type="curve" smooth="yes"/>
      <point x="797" y="921"/>
      <point x="904" y="748"/>
      <point x="827" y="596" type="curve"/>
      <point x="862" y="572"/>
      <point x="913" y="592"/>
      <point x="913" y="679" type="curve" smooth="yes"/>
      <point x="913" y="783"/>
      <point x="825" y="953"/>
      <point x="562" y="953" type="curve" smooth="yes"/>
      <point x="256" y="953"/>
      <point x="56" y="744"/>
      <point x="56" y="487" type="curve" smooth="yes"/>
      <point x="56" y="252"/>
      <point x="242" y="45"/>
      <point x="505" y="45" type="curve"/>
      <point x="726" y="45"/>
      <point x="848" y="151"/>
      <point x="848" y="291" type="curve"/>
      <point x="848" y="347"/>
      <point x="805" y="436"/>
      <point x="643" y="436" type="curve" smooth="yes"/>
    </contour>
  </outline>
</glyph>
<glyph name="sassconf" format="1">
  <advance width="600"/>
  <outline>
    <contour>
      <point x="194" y="457"/>
      <point x="204" y="452"/>
      <point x="219" y="452" type="curve"/>
      <point x="241" y="452"/>
      <point x="263" y="467"/>
      <point x="263" y="486" type="curve" smooth="yes"/>
      <point x="263" y="499"/>
      <point x="253" y="509"/>
      <point x="224" y="509" type="curve" smooth="yes"/>
      <point x="189" y="509"/>
      <point x="140" y="482"/>
      <point x="140" y="448" type="curve" smooth="yes"/>
      <point x="140" y="415"/>
      <point x="201" y="390"/>
      <point x="201" y="366" type="curve" smooth="yes"/>
      <point x="201" y="357"/>
      <point x="196" y="347"/>
      <point x="184" y="347" type="curve" smooth="yes"/>
      <point x="177" y="347"/>
      <point x="170" y="351"/>
      <point x="170" y="360" type="curve" smooth="yes"/>
      <point x="170" y="376"/>
      <point x="202" y="395"/>
      <point x="227" y="408" type="curve"/>
      <point x="228" y="413" type="line"/>
      <point x="204" y="400"/>
      <point x="161" y="379"/>
      <point x="161" y="358" type="curve"/>
      <point x="161" y="347"/>
      <point x="171" y="342"/>
      <point x="179" y="342" type="curve" smooth="yes"/>
      <point x="196" y="342"/>
      <point x="209" y="353"/>
      <point x="209" y="370" type="curve" smooth="yes"/>
      <point x="209" y="397"/>
      <point x="157" y="417"/>
      <point x="157" y="453" type="curve" smooth="yes"/>
      <point x="157" y="478"/>
      <point x="185" y="499"/>
      <point x="218" y="499" type="curve" smooth="yes"/>
      <point x="240" y="499"/>
      <point x="252" y="492"/>
      <point x="252" y="481" type="curve" smooth="yes"/>
      <point x="252" y="469"/>
      <point x="241" y="461"/>
      <point x="223" y="461" type="curve" smooth="yes"/>
      <point x="213" y="461"/>
      <point x="200" y="462"/>
      <point x="191" y="468" type="curve"/>
    </contour>
    <contour>
      <point x="231" y="421"/>
      <point x="219" y="410"/>
      <point x="219" y="394" type="curve"/>
      <point x="219" y="386"/>
      <point x="223" y="379"/>
      <point x="230" y="379" type="curve" smooth="yes"/>
      <point x="240" y="379"/>
      <point x="245" y="386"/>
      <point x="249" y="392" type="curve"/>
      <point x="248" y="396" type="line"/>
      <point x="244" y="389"/>
      <point x="239" y="384"/>
      <point x="235" y="384" type="curve"/>
      <point x="231" y="384"/>
      <point x="228" y="387"/>
      <point x="228" y="396" type="curve" smooth="yes"/>
      <point x="228" y="401"/>
      <point x="229" y="406"/>
      <point x="231" y="410" type="curve"/>
      <point x="241" y="413"/>
      <point x="246" y="416"/>
      <point x="246" y="419" type="curve" smooth="yes"/>
      <point x="246" y="420"/>
      <point x="244" y="421"/>
      <point x="241" y="421" type="curve" smooth="yes"/>
    </contour>
    <contour>
      <point x="250" y="421"/>
      <point x="245" y="406"/>
      <point x="245" y="394" type="curve" smooth="yes"/>
      <point x="245" y="387"/>
      <point x="249" y="385"/>
      <point x="252" y="385" type="curve" smooth="yes"/>
      <point x="264" y="385"/>
      <point x="273" y="405"/>
      <point x="279" y="418" type="curve"/>
      <point x="277" y="422" type="line"/>
      <point x="271" y="408"/>
      <point x="263" y="391"/>
      <point x="254" y="391" type="curve"/>
      <point x="252" y="391"/>
      <point x="251" y="393"/>
      <point x="252" y="397" type="curve"/>
      <point x="256" y="405"/>
      <point x="258" y="412"/>
      <point x="258" y="418" type="curve" smooth="yes"/>
      <point x="258" y="420"/>
      <point x="257" y="421"/>
      <point x="255" y="421" type="curve" smooth="yes"/>
    </contour>
    <contour>
      <point x="344" y="420"/>
      <point x="350" y="413"/>
      <point x="350" y="404" type="curve" smooth="yes"/>
      <point x="350" y="385"/>
      <point x="328" y="370"/>
      <point x="301" y="358" type="curve" smooth="yes"/>
      <point x="275" y="347"/>
      <point x="244" y="329"/>
      <point x="244" y="311" type="curve" smooth="yes"/>
      <point x="244" y="305"/>
      <point x="247" y="302"/>
      <point x="251" y="302" type="curve" smooth="yes"/>
      <point x="257" y="302"/>
      <point x="268" y="310"/>
      <point x="268" y="331" type="curve" smooth="yes"/>
      <point x="268" y="339"/>
      <point x="263" y="353"/>
      <point x="246" y="353" type="curve" smooth="yes"/>
      <point x="215" y="353"/>
      <point x="162" y="313"/>
      <point x="162" y="252" type="curve" smooth="yes"/>
      <point x="162" y="222"/>
      <point x="178" y="207"/>
      <point x="197" y="207" type="curve"/>
      <point x="229" y="207"/>
      <point x="243" y="248"/>
      <point x="256" y="277" type="curve"/>
      <point x="252" y="278" type="line"/>
      <point x="240" y="252"/>
      <point x="224" y="215"/>
      <point x="205" y="215" type="curve" smooth="yes"/>
      <point x="194" y="215"/>
      <point x="183" y="222"/>
      <point x="183" y="256" type="curve" smooth="yes"/>
      <point x="183" y="306"/>
      <point x="218" y="347"/>
      <point x="245" y="347" type="curve" smooth="yes"/>
      <point x="255" y="347"/>
      <point x="262" y="342"/>
      <point x="262" y="330" type="curve" smooth="yes"/>
      <point x="262" y="316"/>
      <point x="257" y="306"/>
      <point x="253" y="306" type="curve" smooth="yes"/>
      <point x="251" y="306"/>
      <point x="250" y="308"/>
      <point x="250" y="312" type="curve" smooth="yes"/>
      <point x="250" y="327"/>
      <point x="273" y="341"/>
      <point x="303" y="354" type="curve" smooth="yes"/>
      <point x="333" y="367"/>
      <point x="358" y="384"/>
      <point x="358" y="406" type="curve" smooth="yes"/>
      <point x="358" y="417"/>
      <point x="349" y="424"/>
      <point x="337" y="424" type="curve" smooth="yes"/>
      <point x="322" y="424"/>
      <point x="293" y="411"/>
      <point x="293" y="399" type="curve" smooth="yes"/>
      <point x="293" y="397"/>
      <point x="295" y="395"/>
      <point x="299" y="395" type="curve" smooth="yes"/>
      <point x="307" y="395"/>
      <point x="314" y="401"/>
      <point x="314" y="407" type="curve" smooth="yes"/>
      <point x="314" y="413"/>
      <point x="306" y="421"/>
      <point x="306" y="429" type="curve"/>
      <point x="308" y="432"/>
      <point x="309" y="436"/>
      <point x="306" y="436" type="curve" smooth="yes"/>
      <point x="302" y="436"/>
      <point x="299" y="433"/>
      <point x="299" y="428" type="curve" smooth="yes"/>
      <point x="299" y="419"/>
      <point x="308" y="411"/>
      <point x="308" y="406" type="curve" smooth="yes"/>
      <point x="308" y="401"/>
      <point x="304" y="398"/>
      <point x="299" y="398" type="curve" smooth="yes"/>
      <point x="298" y="398"/>
      <point x="297" y="399"/>
      <point x="297" y="400" type="curve" smooth="yes"/>
      <point x="297" y="410"/>
      <point x="320" y="420"/>
      <point x="334" y="420" type="curve" smooth="yes"/>
    </contour>
    <contour>
      <point x="277" y="432"/>
      <point x="274" y="429"/>
      <point x="274" y="423" type="curve" smooth="yes"/>
      <point x="274" y="414"/>
      <point x="284" y="406"/>
      <point x="284" y="399" type="curve" smooth="yes"/>
      <point x="284" y="395"/>
      <point x="281" y="393"/>
      <point x="277" y="393" type="curve" smooth="yes"/>
      <point x="276" y="393"/>
      <point x="275" y="394"/>
      <point x="275" y="395" type="curve"/>
      <point x="275" y="401"/>
      <point x="290" y="407"/>
      <point x="304" y="424" type="curve"/>
      <point x="303" y="429" type="line"/>
      <point x="289" y="409"/>
      <point x="271" y="402"/>
      <point x="271" y="394" type="curve" smooth="yes"/>
      <point x="271" y="392"/>
      <point x="273" y="390"/>
      <point x="277" y="390" type="curve" smooth="yes"/>
      <point x="284" y="390"/>
      <point x="290" y="395"/>
      <point x="290" y="400" type="curve" smooth="yes"/>
      <point x="290" y="407"/>
      <point x="281" y="417"/>
      <point x="281" y="425" type="curve"/>
      <point x="283" y="428"/>
      <point x="284" y="432"/>
      <point x="281" y="432" type="curve" smooth="yes"/>
    </contour>
    <contour>
      <point x="257" y="292"/>
      <point x="239" y="275"/>
      <point x="239" y="253" type="curve" smooth="yes"/>
      <point x="239" y="240"/>
      <point x="249" y="234"/>
      <point x="260" y="234" type="curve" smooth="yes"/>
      <point x="276" y="234"/>
      <point x="291" y="252"/>
      <point x="291" y="273" type="curve" smooth="yes"/>
      <point x="291" y="286"/>
      <point x="285" y="292"/>
      <point x="273" y="292" type="curve" smooth="yes"/>
    </contour>
    <contour>
      <point x="278" y="285"/>
      <point x="279" y="278"/>
      <point x="279" y="272" type="curve" smooth="yes"/>
      <point x="279" y="255"/>
      <point x="268" y="240"/>
      <point x="260" y="240" type="curve" smooth="yes"/>
      <point x="254" y="240"/>
      <point x="251" y="245"/>
      <point x="251" y="255" type="curve" smooth="yes"/>
      <point x="251" y="274"/>
      <point x="264" y="285"/>
      <point x="271" y="285" type="curve" smooth="yes"/>
    </contour>
    <contour>
      <point x="320" y="302"/>
      <point x="317" y="301"/>
      <point x="314" y="298" type="curve" smooth="yes"/>
      <point x="298" y="282"/>
      <point x="287" y="278"/>
      <point x="270" y="289" type="curve"/>
      <point x="263" y="284" type="line"/>
      <point x="272" y="275"/>
      <point x="298" y="274"/>
      <point x="311" y="289" type="curve"/>
      <point x="306" y="271" type="line"/>
      <point x="302" y="262"/>
      <point x="294" y="249"/>
      <point x="294" y="244" type="curve" smooth="yes"/>
      <point x="294" y="242"/>
      <point x="297" y="241"/>
      <point x="300" y="241" type="curve"/>
      <point x="302" y="241"/>
      <point x="306" y="241"/>
      <point x="307" y="245" type="curve" smooth="yes"/>
      <point x="313" y="269" type="line"/>
      <point x="322" y="288" type="line" smooth="yes"/>
      <point x="328" y="300"/>
      <point x="327" y="302"/>
      <point x="323" y="302" type="curve"/>
    </contour>
    <contour>
      <point x="484" y="180"/>
      <point x="399" y="129"/>
      <point x="292" y="129" type="curve" smooth="yes"/>
      <point x="167" y="129"/>
      <point x="73" y="221"/>
      <point x="73" y="339" type="curve" smooth="yes"/>
      <point x="73" y="460"/>
      <point x="160" y="561"/>
      <point x="306" y="561" type="curve" smooth="yes"/>
      <point x="440" y="561"/>
      <point x="514" y="465"/>
      <point x="514" y="368" type="curve"/>
      <point x="514" y="271"/>
      <point x="454" y="256"/>
      <point x="454" y="228" type="curve" smooth="yes"/>
      <point x="454" y="217"/>
      <point x="460" y="212"/>
      <point x="470" y="213" type="curve"/>
      <point x="458" y="239"/>
      <point x="518" y="276"/>
      <point x="518" y="368" type="curve" smooth="yes"/>
      <point x="518" y="466"/>
      <point x="441" y="564"/>
      <point x="306" y="564" type="curve" smooth="yes"/>
      <point x="159" y="564"/>
      <point x="70" y="462"/>
      <point x="70" y="339" type="curve" smooth="yes"/>
      <point x="70" y="219"/>
      <point x="166" y="126"/>
      <point x="292" y="126" type="curve"/>
      <point x="400" y="126"/>
      <point x="487" y="178"/>
      <point x="487" y="235" type="curve"/>
      <point x="487" y="261"/>
      <point x="474" y="278"/>
      <point x="440" y="278" type="curve" smooth="yes"/>
      <point x="391" y="278"/>
      <point x="314" y="225"/>
      <point x="314" y="168" type="curve" smooth="yes"/>
      <point x="314" y="157"/>
      <point x="319" y="148"/>
      <point x="330" y="148" type="curve" smooth="yes"/>
      <point x="359" y="148"/>
      <point x="381" y="196"/>
      <point x="389" y="289" type="curve" smooth="yes"/>
      <point x="394" y="344"/>
      <point x="411" y="388"/>
      <point x="423" y="388" type="curve" smooth="yes"/>
      <point x="428" y="388"/>
      <point x="430" y="384"/>
      <point x="430" y="377" type="curve" smooth="yes"/>
      <point x="430" y="340"/>
      <point x="373" y="256"/>
      <point x="353" y="256" type="curve" smooth="yes"/>
      <point x="349" y="256"/>
      <point x="348" y="258"/>
      <point x="348" y="262" type="curve" smooth="yes"/>
      <point x="348" y="271"/>
      <point x="355" y="279"/>
      <point x="355" y="293" type="curve" smooth="yes"/>
      <point x="355" y="301"/>
      <point x="351" y="305"/>
      <point x="345" y="305" type="curve" smooth="yes"/>
      <point x="334" y="305"/>
      <point x="320" y="283"/>
      <point x="308" y="268" type="curve"/>
      <point x="308" y="255" type="line"/>
      <point x="315" y="271"/>
      <point x="332" y="295"/>
      <point x="339" y="295" type="curve"/>
      <point x="342" y="295"/>
      <point x="343" y="293"/>
      <point x="343" y="290" type="curve" smooth="yes"/>
      <point x="343" y="279"/>
      <point x="335" y="270"/>
      <point x="335" y="259" type="curve" smooth="yes"/>
      <point x="335" y="253"/>
      <point x="339" y="249"/>
      <point x="346" y="249" type="curve" smooth="yes"/>
      <point x="378" y="249"/>
      <point x="435" y="340"/>
      <point x="435" y="377" type="curve" smooth="yes"/>
      <point x="435" y="391"/>
      <point x="429" y="395"/>
      <point x="422" y="395" type="curve" smooth="yes"/>
      <point x="401" y="395"/>
      <point x="378" y="341"/>
      <point x="366" y="226" type="curve" smooth="yes"/>
      <point x="361" y="180"/>
      <point x="343" y="155"/>
      <point x="329" y="155" type="curve" smooth="yes"/>
      <point x="323" y="155"/>
      <point x="319" y="160"/>
      <point x="319" y="170" type="curve" smooth="yes"/>
      <point x="319" y="222"/>
      <point x="391" y="275"/>
      <point x="440" y="275" type="curve" smooth="yes"/>
      <point x="473" y="275"/>
      <point x="484" y="260"/>
      <point x="484" y="235" type="curve" smooth="yes"/>
    </contour>
  </outline>
</glyph>
